<svg width="3987" height="2727" viewBox="0 0 3987 2727" fill="none" xmlns="http://www.w3.org/2000/svg">
<path d="M404.556 210C404.556 112.246 483.802 33 581.556 33H2370C2467.75 33 2547 112.246 2547 210V446.509C2547 450.375 2543.87 453.509 2540 453.509H411.556C407.69 453.509 404.556 450.375 404.556 446.509V210Z" fill="#7B3F55"/>
<path d="M534 3H2322.44C2418.54 3 2496.44 80.9025 2496.44 177V413.509C2496.44 415.718 2494.65 417.509 2492.44 417.509H364C361.791 417.509 360 415.718 360 413.509V177C360 80.9025 437.902 3 534 3Z" fill="#FEC363" stroke="#7B3F55" stroke-width="6"/>
<rect x="44" y="462.244" width="3935" height="2256.24" rx="279" fill="#7B3F55" stroke="#7B3F55" stroke-width="16"/>
<rect x="8" y="419" width="3935" height="2256.24" rx="279" fill="#EBE1D8" stroke="#7B3F55" stroke-width="16"/>
</svg>
